<?xml version="1.0" standalone="no"?>
<!DOCTYPE svg PUBLIC "-//W3C//DTD SVG 20010904//EN"
 "http://www.w3.org/TR/2001/REC-SVG-20010904/DTD/svg10.dtd">
<svg version="1.0" xmlns="http://www.w3.org/2000/svg"
 width="200.000000pt" height="200.000000pt" viewBox="0 0 200.000000 200.000000"
 preserveAspectRatio="xMidYMid meet">

<g transform="translate(0.000000,200.000000) scale(0.100000,-0.100000)"
fill="#000000" stroke="none">
<path d="M1785 1221 c-7 -12 12 -24 25 -16 11 7 4 25 -10 25 -5 0 -11 -4 -15
-9z"/>
<path d="M1860 1125 c0 -57 4 -95 10 -95 6 0 10 11 10 23 0 38 12 39 47 5 40
-38 58 -29 20 10 -33 35 -33 39 0 74 38 40 7 36 -34 -4 l-33 -32 0 57 c0 31
-4 57 -10 57 -6 0 -10 -38 -10 -95z"/>
<path d="M1060 1185 c0 -8 -7 -15 -15 -15 -8 0 -15 -7 -15 -15 0 -8 7 -15 15
-15 12 0 15 -13 15 -55 0 -30 5 -55 10 -55 6 0 10 25 10 55 0 42 3 55 15 55 8
0 15 7 15 15 0 8 -7 15 -15 15 -8 0 -15 7 -15 15 0 8 -4 15 -10 15 -5 0 -10
-7 -10 -15z"/>
<path d="M1700 1189 c0 -7 -8 -18 -17 -25 -17 -12 -17 -13 0 -19 13 -6 17 -19
17 -62 0 -70 24 -69 28 2 2 31 9 53 20 61 16 12 16 13 0 19 -10 4 -18 13 -18
21 0 8 -7 14 -15 14 -8 0 -15 -5 -15 -11z"/>
<path d="M640 1097 c0 -50 3 -68 13 -65 7 3 13 26 15 56 3 48 5 52 28 52 20 0
24 -5 24 -32 0 -42 10 -78 21 -78 4 0 9 24 11 53 3 48 5 52 30 55 26 3 27 1
30 -49 2 -31 8 -54 16 -57 15 -5 17 90 2 119 -12 21 -50 25 -68 7 -8 -8 -15
-8 -24 -1 -7 6 -32 10 -55 10 l-43 -2 0 -68z"/>
<path d="M892 1154 c-15 -11 -22 -25 -22 -50 0 -56 55 -94 89 -61 11 10 14 10
18 0 12 -33 23 -6 23 57 0 40 -4 70 -10 70 -5 0 -10 -5 -10 -10 0 -7 -6 -7
-19 0 -27 14 -43 13 -69 -6z m73 -28 c30 -45 -17 -94 -55 -56 -24 24 -25 38
-3 62 22 24 39 23 58 -6z"/>
<path d="M1150 1150 c-40 -40 -12 -120 41 -120 28 0 61 19 54 31 -4 5 -14 5
-26 -2 -16 -8 -26 -7 -45 6 -34 22 -21 35 36 35 l50 0 -11 27 c-6 15 -16 31
-22 35 -22 14 -57 8 -77 -12z m68 -12 c20 -20 14 -28 -23 -28 -24 0 -35 5 -35
14 0 24 39 33 58 14z"/>
<path d="M1290 1100 c0 -40 4 -70 10 -70 6 0 10 22 10 49 0 89 57 97 62 8 4
-63 22 -65 26 -3 3 48 20 70 46 60 12 -5 16 -20 16 -61 0 -62 23 -72 28 -12 6
69 -29 115 -69 91 -14 -9 -25 -9 -44 0 -21 9 -31 9 -46 0 -11 -7 -19 -8 -19
-2 0 5 -4 10 -10 10 -6 0 -10 -30 -10 -70z"/>
<path d="M1535 1150 c-25 -28 -23 -76 3 -103 19 -19 26 -20 51 -10 21 8 31 8
34 0 2 -6 9 -7 15 -3 15 9 16 122 1 132 -6 3 -15 1 -19 -6 -5 -9 -9 -9 -14 -1
-11 18 -51 13 -71 -9z m66 -10 c36 -20 17 -90 -25 -90 -12 0 -36 33 -36 50 0
17 24 50 36 50 3 0 14 -5 25 -10z"/>
<path d="M1790 1100 c0 -40 4 -70 10 -70 6 0 10 30 10 70 0 40 -4 70 -10 70
-6 0 -10 -30 -10 -70z"/>
</g>
</svg>
